<?xml version="1.0" encoding="UTF-8" standalone="no"?>
<!-- Created with Inkscape (http://www.inkscape.org/) -->

<svg
   xmlns:dc="http://purl.org/dc/elements/1.1/"
   xmlns:cc="http://creativecommons.org/ns#"
   xmlns:rdf="http://www.w3.org/1999/02/22-rdf-syntax-ns#"
   xmlns:svg="http://www.w3.org/2000/svg"
   xmlns="http://www.w3.org/2000/svg"
   xmlns:sodipodi="http://sodipodi.sourceforge.net/DTD/sodipodi-0.dtd"
   xmlns:inkscape="http://www.inkscape.org/namespaces/inkscape"
   version="1.1"
   id="svg32"
   xml:space="preserve"
   width="466.66666"
   height="200"
   viewBox="0 0 466.66666 200"
   sodipodi:docname="Beretta 92.svg"
   inkscape:version="0.92.1 r15371"><metadata
     id="metadata38"><rdf:RDF><cc:Work
         rdf:about=""><dc:format>image/svg+xml</dc:format><dc:type
           rdf:resource="http://purl.org/dc/dcmitype/StillImage" /><dc:title></dc:title></cc:Work></rdf:RDF></metadata><defs
     id="defs36"><clipPath
       clipPathUnits="userSpaceOnUse"
       id="clipPath48"><path
         d="M 0,150 H 350 V 0 H 0 Z"
         id="path46"
         inkscape:connector-curvature="0" /></clipPath></defs><sodipodi:namedview
     pagecolor="#ffffff"
     bordercolor="#666666"
     borderopacity="1"
     objecttolerance="10"
     gridtolerance="10"
     guidetolerance="10"
     inkscape:pageopacity="0"
     inkscape:pageshadow="2"
     inkscape:window-width="667"
     inkscape:window-height="480"
     id="namedview34"
     showgrid="false"
     inkscape:zoom="0.73714287"
     inkscape:cx="233.33333"
     inkscape:cy="100"
     inkscape:window-x="0"
     inkscape:window-y="0"
     inkscape:window-maximized="0"
     inkscape:current-layer="g40" /><g
     id="g40"
     inkscape:groupmode="layer"
     inkscape:label="Beretta 92"
     transform="matrix(1.3333333,0,0,-1.3333333,0,200)"><g
       id="g42"><g
         id="g44"
         clip-path="url(#clipPath48)"><g
           id="g50"
           transform="translate(260.3281,15.5195)"><path
             d="M 0,0 C -1.299,0 -1.655,1.109 -1.748,1.553 -0.351,1.559 0.879,1.564 1.882,1.57 1.742,1.105 1.279,0 0,0 m -11.203,111.01 0.037,-0.062 c -0.016,0.02 -0.032,0.04 -0.049,0.06 0.004,0.001 0.008,0.002 0.012,0.002 m -85.58,-42.108 v 0.64 c 0,3.836 3.452,6.629 6.409,7.854 1.444,0.6 2.909,0.917 4.237,0.917 H -74 c 0.705,-2.532 3.344,-14.679 -9.388,-19.263 0,0 -2.501,-1.255 1.374,-1.003 3.873,0.247 11.245,6.713 11.12,10.353 l 1.5,1.017 0.625,6.622 c 0,0 2.245,1.369 3,2.268 5.577,-0.068 9.799,-2.369 11.602,-6.343 1.843,-4.059 0.825,-9.204 -2.59,-13.106 -0.158,-0.181 -0.33,-0.359 -0.537,-0.568 -3.41,-3.436 -9.341,-5.33 -16.698,-5.33 -5.114,0 -10.619,0.946 -14.724,2.53 -8.097,3.122 -8.083,8.354 -8.067,13.412 m 92.015,40.474 c -0.083,1.037 -0.905,1.859 -1.941,1.942 0.057,0.006 0.111,0.017 0.17,0.017 0.989,0 1.789,-0.8 1.789,-1.788 0,-0.059 -0.012,-0.114 -0.018,-0.171 m -3.544,0 c 0.085,0.717 0.692,1.277 1.433,1.277 0.798,0 1.447,-0.649 1.447,-1.447 0,-0.742 -0.56,-1.347 -1.277,-1.433 -0.849,0.082 -1.521,0.752 -1.603,1.603 M 8.89,86.377 C 8.607,86.435 8.259,86.455 7.817,86.479 5.27,86.618 -0.032,86.908 -2.96,96.423 l -0.019,0.063 -2.044,3.15 c -0.137,0.667 -0.321,1.336 -0.552,2.002 -0.002,0.012 -0.004,0.026 -0.006,0.038 l 0.118,-0.196 c 0,0 -0.127,0.358 -0.148,0.912 0.029,0.557 0.191,1.263 0.709,2.014 1.646,2.169 2.046,3.88 1.984,5.112 0.058,2.404 -1.771,3.695 -3.178,3.602 -0.067,0.005 -0.134,0.017 -0.202,0.017 -0.36,0 -0.692,-0.075 -0.984,-0.222 -1.613,-0.806 -3.766,-1.192 -4.439,-1.299 -0.42,0.495 -0.826,0.957 -1.215,1.385 l -3.089,4.649 h -0.831 c -0.08,0.105 -0.14,0.185 -0.157,0.207 l -0.103,0.134 h -6.176 c -0.555,1.181 -1.127,2.4 -1.304,2.783 -0.375,0.813 -2.529,0.593 -3.124,0 -0.286,-0.287 -0.836,-1.552 -1.327,-2.783 h -42.659 l -0.606,0.004 c -0.715,0 -2.046,0 -2.046,-1.406 v -0.404 h -86.667 c -0.017,1.633 -0.186,2.619 -1.464,2.619 h -1.923 l -1.575,3.095 c -4.228,0 -6.669,-2.228 -7.46,-3.095 h -0.288 c -0.161,0 -0.403,-0.05 -0.637,-0.285 -0.402,-0.408 -0.657,-1.31 -0.822,-2.334 h -4.162 c -1.368,0 -2.081,-3.254 -2.081,-6.469 0,-3.216 0.713,-6.47 2.081,-6.47 h 3.898 V 95.34 h 0.368 l -0.001,-4.758 c -0.007,-1.929 -0.013,-3.924 1.147,-5.086 0.601,-0.603 1.46,-0.911 2.553,-0.911 h 10.644 c 0.096,-1.131 0.297,-1.921 0.716,-2.344 0.033,-0.034 0.076,-0.049 0.112,-0.077 0.005,-0.005 0.008,-0.012 0.014,-0.016 l 0.13,-0.105 h 0.03 c 0.157,-0.084 0.324,-0.141 0.505,-0.141 h 32.74 7.685 c 0.022,0 0.047,-0.001 0.069,-0.001 0.198,0 0.407,-0.005 0.623,-0.01 3.081,-0.091 8.181,-0.843 12.148,-4.41 1.789,-1.608 3.186,-3.645 4.153,-6.065 1.724,-4.02 1.609,-7.199 1.498,-10.272 -0.013,-0.354 -0.025,-0.706 -0.036,-1.055 -0.1,-3.615 0.231,-4.437 4.268,-5.717 0.368,-0.115 0.791,-0.253 1.261,-0.403 4.571,-1.473 13.08,-4.211 17.815,-4.211 h 6.09 c 1.46,0 3.734,0.588 6.137,1.209 2.513,0.65 5.108,1.321 6.798,1.321 0.794,0 1.545,-0.07 2.234,-0.215 3.5,-0.724 5.778,-3.364 6.766,-7.846 0.344,-1.557 0.92,-3.597 1.586,-5.958 2.435,-8.628 6.117,-21.67 4.227,-31.411 -0.268,-1.139 -0.104,-2.11 0.491,-2.881 0.272,-0.354 0.636,-0.661 1.084,-0.932 V 0.062 c 0,-1.376 1.076,-3 6.198,-3 5.126,0 27.617,1.376 29.491,1.376 1.466,0 1.251,2.157 1.088,3.101 0.225,0.001 0.447,0.002 0.667,0.003 0.22,-1.041 1.061,-3.604 4.05,-3.604 2.959,0 4.047,2.562 4.375,3.644 0.273,0.002 0.43,0.003 0.444,0.003 l 0.473,0.004 v 0.83 C 5.463,2.374 5.812,2.336 6.166,2.336 h 0.002 c 1.377,0 1.845,0.594 1.995,1.089 0.031,0.109 3.099,11.422 -1.143,21.318 -3.958,9.235 -10.506,27.791 -13.476,38.182 -1.421,4.973 -0.87,9.559 1.554,12.907 2.222,3.074 5.836,4.863 10.176,5.042 4.697,-0.128 5.409,1.894 5.495,2.748 0.127,1.238 -0.753,2.525 -1.879,2.755"
             style="fill:#231f20;fill-opacity:1;fill-rule:nonzero;stroke:none"
             id="path52"
             inkscape:connector-curvature="0" /></g></g></g></g></svg>