<?xml version="1.0" encoding="utf-8"?>
<!-- Generator: Adobe Illustrator 18.0.0, SVG Export Plug-In . SVG Version: 6.00 Build 0)  -->
<!DOCTYPE svg PUBLIC "-//W3C//DTD SVG 1.1//EN" "http://www.w3.org/Graphics/SVG/1.1/DTD/svg11.dtd">
<svg version="1.1" id="Слой_1" xmlns="http://www.w3.org/2000/svg" xmlns:xlink="http://www.w3.org/1999/xlink" x="0px" y="0px"
	 viewBox="131.7 0 613.7 1024" enable-background="new 131.7 0 613.7 1024" xml:space="preserve">
<path fill="#000000"      d="
	M584.9,41.5c0,0-54.9-30.4-170-13.2L413,17.6c-1.7-9.6-4.8-17-7-16.6c-2.2,0.4-2.7,8.5-1,18l1.9,10.7
	c-21.9,4.7-127.1,28.7-160.1,62.7c0,0-62.1,52.1-106,163.5c0,0,25.8-4.7,35.2,22.8c0,0,85.5-17,152.1-17.1c0.2,1.4,0.6,2.9,1.2,4.5
	c0,0-0.8,8-2.8,7.6l-6.1-1.2l-4.6,7.6c0,0-5.2,0-9.9,13.9c0,0-40.2,44.2-41.4,88.7c0,0-2.4,98.3-7.6,127.3
	c0,0-19.9,116.2-12.3,134.9c0,0,19.9-0.4,28.2,5.6l1.6,8.4c0,0-4.4,5.6-4.8,19.9c0,0-5.2,19.9-4,27.1c0,0-26.7,56.5-25.5,69.6
	l-6.8,13.5l-0.3,2.1c0,0-8.7,6.5-16.4,47.2c0,0-8.2,23.1-11.9,29.1c0,0-5.9,5.9-9.1,34.6c0,0-12.3,8.2-16.4,29.2
	c0,0-8.7,19.2-13.2,24.6c0,0-8.2,17.1-5.9,23.9c0,0-5.5,8.9-2.3,17.1h-1.2l-1.8,14.7c0,0,12,8.2,43.6,3.7v-5.1l25.3,6.5
	c0,0,49.1,10.9,82.8-5.5v-4.1c0,0-2.1-13.7-25.4-8.6c0,0-20.1-2.9-27.8-14.8l-13.7-16.9c0,0,4.6-11.9,1.8-22.8
	c0,0-4.6-17.8,2.7-20.5c0,0,14.6-11.9,30.6-46.6c0,0,39-65.3,49.1-100.4l12.6-38.3l40.2,62.1c0,0,39.7,92.7,69.4,119.6
	c0,0,6.8,38.3,10.9,44.3c0,0,2.5,14.6,8.7,21.9v1.7l7.3,12.9c0,0,26.5-9.1,36.5-18.3l-1.8-5.9l41.5-13.7c0,0,37.4-16.4,45.2-39.7
	l-3.2-2.7c0,0-10-10.5-26.1,5.8c0,0-15.9,6.8-28.7,5l-18.3-5.4l4.6-4.1c0,0-22.4-28.8-27.4-31.5c0,0-10.5-26-20.5-28.8
	c0,0-9.6-7.8-11.4-23.3c0,0-1.4-11.4-6.4-17.3c0,0-8.7-32-10-47.5c0,0-8.7-37.4-20.5-61.2c0,0-4.3-19.5-13-29.7
	c0,0-1.6-26.9-8.9-33.3c0,0,27.8-6.8,29.7-16.4l-5.5-96.8l-1.8-24.7c0,0,25.1,0,28.3-3.6c3.2-3.7,1.3-15.3,1.3-15.3h4.1l0.6-6.2
	c0,0,11.2,0.4,20.8-0.5l0.9,5.6c0.5,3.3,3.6,5.5,6.8,5l0.3,0c3.3-0.5,5.5-3.6,4.9-6.8l-1-6.4c0.2-0.1,0.4-0.3,0.6-0.5
	c0,0,7.2,1,8.6-3.1c0,0,1-5.6-2.2-6c0,0,6.5-4.3,1.8-11.1c0,0,4.4-6.8-0.8-10.8c0,0,2.4-10.1-4.4-10.1l-13.8-2l-31.2-189.9
	c62.1-13.5,145.1-29.3,174.8-24.4c0,0,74.4-46.9,118.3-43.4C745.4,181.5,656.9,72,584.9,41.5z M475.1,433.8c-3.2,0.4-8,1.9-9.8,7
	c0,0-10.3,8.4-8.7,12.3l-2.8,1.6c0,0-4-4.8-7.6-4.8c0,0-22.4,0.8-25.6,2.4c0,0-20.5-68.8-36.1-91.9c0,0-3.5-17.1-10.1-21.5
	c0,0-1-15.9-3.8-19.9l-1.6-7.2c0,0,15.5,6.8,22.3,2.4c0,0,4.4-5.6,2.8-8.8c0,0,0-4.4,5.2-2c0,0,3.1-3.1-0.6-6.6
	c0.6,0.6,3.2,2.6,6.6-0.2l1.6-6.8c0,0,9.6,4,12.7,0V269c0,0,1.3-4.4,5.2-6.8l1.7-7.2c5.9-1.3,12.1-2.7,18.6-4.2L475.1,433.8z"/>
</svg>
